<svg xmlns:xlink="http://www.w3.org/1999/xlink" viewBox="0 0 444 51" fill="none" xmlns="http://www.w3.org/2000/svg" class="headerLogo pointer-events-none md:pointer-events-auto group/logo overflow-visible h-8 lg:w-[27.75rem] lg:h-[3.1875rem] active" aria-label="Spielbank Logo" role="img" width="444"  height="51" >
    <g fill="none">
        <path class="spielbank hidden lg:block transition-bounce opacity-0 -translate-x-4 duration-700 group-[.active]/logo:opacity-100 group-[.active]/logo:translate-x-0" d="M16.8149 21.6992C15.2896 20.9565 13.2404 20.3928 10.9325 20.3928C7.58352 20.3928 5.90569 21.7722 5.90569 23.6688C5.90569 25.3798 6.72803 26.5006 10.223 28.0259L12.9022 29.2196C17.0006 31.0433 18.7514 33.2384 18.7514 36.8925C18.7514 41.4751 14.4341 44.5986 8.95629 44.5986C5.64042 44.5986 2.70256 44.0017 0.242188 42.8478L1.5818 39.532C3.70395 40.6129 6.16433 41.2429 8.73081 41.2429C12.0069 41.2429 13.8704 39.6447 13.8704 37.6684C13.8704 35.5861 12.9751 34.3924 9.65925 32.9732L6.49592 31.6336C2.9612 30.1414 1.09768 27.6479 1.09768 24.2989C1.09768 20.3861 4.97062 17.0371 10.6673 17.0371C13.7577 17.0371 15.9926 17.4085 18.1147 18.4165L16.8083 21.6926L16.8149 21.6992ZM23.5196 31.3086C23.5196 25.8706 23.4798 22.82 23.2941 17.4947H30.7415C37.6651 17.4947 41.8033 20.3596 41.8033 25.3533C41.8033 30.347 37.3335 33.5103 31.1925 33.5103C29.9988 33.5103 29.1433 33.4706 28.0623 33.3644C28.1021 37.7215 28.1353 39.8834 28.2878 44.2007H23.3007C23.4864 39.2468 23.5262 36.3421 23.5262 31.3152L23.5196 31.3086ZM28.1751 20.8835C28.1021 22.6741 28.0623 28.1055 28.0623 30.1547C28.6194 30.1945 29.4417 30.1945 30.0717 30.1945C34.84 30.1945 37.0351 28.5962 37.0351 25.466C37.0351 22.6741 34.9129 20.8504 30.1447 20.8504C29.4749 20.8504 28.4669 20.8504 28.1684 20.8901L28.1751 20.8835ZM50.1062 44.1941H45.1191C45.3048 39.2402 45.3446 36.3355 45.3446 31.3086C45.3446 25.8706 45.3048 22.82 45.1191 17.4947H50.1062C49.9205 22.82 49.8807 25.8706 49.8807 31.3086C49.8807 36.3355 49.9205 39.2402 50.1062 44.1941ZM60.4186 20.8437C60.3456 23.6025 60.3058 26.0231 60.3058 28.8482C64.0329 28.8482 68.1246 28.8084 70.6978 28.6625V32.3498C68.0517 32.2039 63.9201 32.1641 60.3058 32.1641C60.3058 35.3274 60.3456 37.9735 60.4186 40.8384C64.3644 40.8384 69.4311 40.7986 72.296 40.6527L70.8834 44.1874H55.5442C55.7299 39.2335 55.7697 36.3288 55.7697 31.302C55.7697 25.864 55.7299 22.8134 55.5442 17.4881H71.0758V20.9896C68.7679 20.8437 64.3379 20.8437 60.4252 20.8437H60.4186ZM81.0101 40.8053C84.9958 40.8053 90.1685 40.7323 93.0003 40.5798L91.6209 44.1941H76.1292C76.3148 39.2402 76.3546 36.3355 76.3546 31.3086C76.3546 25.8706 76.3148 22.82 76.1292 17.4947H81.1162C80.9305 22.82 80.8907 25.8706 80.8907 31.3086C80.8907 34.8831 80.9305 37.5292 81.0035 40.8053H81.0101ZM96.535 31.3086C96.535 25.8706 96.4952 22.82 96.3095 17.4947H104.427C110.946 17.4947 114.779 19.8755 114.779 24.0469C114.779 26.8388 112.431 29.2992 109.381 29.8165C113.214 30.5261 115.973 33.0594 115.973 36.2957C115.973 41.4751 112.1 44.1874 104.5 44.1874H96.3095C96.4952 39.2335 96.535 36.3288 96.535 31.302V31.3086ZM101.151 20.8106C101.078 23.2312 101.078 25.9502 101.078 28.7023C101.708 28.7421 102.716 28.7421 103.684 28.7421C108.081 28.7421 110.123 27.3627 110.123 24.6835C110.123 22.1502 108.3 20.7708 103.757 20.7708C102.935 20.7708 101.821 20.7708 101.151 20.8106ZM103.797 32.0912C102.868 32.0912 101.821 32.0912 101.078 32.1309C101.078 35.0754 101.078 37.9403 101.151 40.8848C101.821 40.9246 102.829 40.9246 103.91 40.9246C109.381 40.9246 111.211 39.2468 111.211 36.4217C111.211 33.5966 108.83 32.1044 103.803 32.1044L103.797 32.0912ZM118.055 44.1941C121.298 37.6419 126.696 25.3865 130.045 17.309H134.588C137.38 24.9421 141.777 35.8513 145.464 44.1941H139.993C139.097 41.8464 138.056 39.2402 137.128 36.6737H125.847C124.806 39.3529 123.685 41.999 122.644 44.1941H118.062H118.055ZM127.14 33.318H136C134.475 29.2992 132.983 25.161 131.789 21.812C130.596 25.0549 128.812 29.2594 127.134 33.318H127.14ZM167.097 17.4947H171.494C171.308 22.8598 171.268 25.8706 171.268 31.3086C171.268 36.3355 171.308 39.2402 171.494 44.1941H167.024C162.11 36.7068 156.526 28.4039 152.686 23.0786C152.686 32.2039 152.686 37.1578 152.945 44.1941H148.548C148.733 39.2402 148.773 36.3355 148.773 31.3086C148.773 25.8706 148.733 22.82 148.548 17.4947H153.76C158.973 24.5708 164.152 32.2437 167.316 37.118C167.316 28.961 167.316 24.0071 167.09 17.4947H167.097ZM176.925 44.1941C177.111 39.2402 177.15 36.3355 177.15 31.3086C177.15 25.8706 177.111 22.7802 176.925 17.4947H181.912C181.726 21.9247 181.726 25.7645 181.687 29.7833C185.818 26.0231 191.409 20.4723 193.935 17.4947H199.075C195.872 20.9963 189.989 26.8057 186.342 30.0817C190.215 34.3658 195.726 39.7641 199.599 43.1131L194.797 45.3878C191.15 41.7005 185.486 35.6325 181.687 31.1627C181.687 35.7054 181.726 39.4656 181.912 44.1941H176.925Z" fill="currentColor"></path>
        <path class="hamburg hidden lg:block transition-bounce opacity-0 translate-x-4 duration-700  group-[.active]/logo:opacity-100 group-[.active]/logo:translate-x-0" d="M256.348 28.7747H269.644C269.604 24.7161 269.571 21.8512 269.386 17.4941H274.412C274.227 22.8194 274.187 25.87 274.187 31.308C274.187 36.3349 274.227 39.2396 274.412 44.1935H269.386C269.571 39.5778 269.611 36.7461 269.644 32.2033H256.348C256.387 36.7461 256.42 39.5778 256.573 44.1935H251.586C251.772 39.2396 251.811 36.3349 251.811 31.308C251.811 25.87 251.772 22.8194 251.586 17.4941H256.573C256.427 21.8512 256.387 24.7161 256.348 28.7747ZM277.277 44.1935C280.52 37.6413 285.918 25.3859 289.267 17.3084H293.81C296.602 24.9416 300.999 35.8508 304.686 44.1935H299.215C298.32 41.8459 297.279 39.2396 296.35 36.6731H285.07C284.028 39.3523 282.908 41.9984 281.866 44.1935H277.284H277.277ZM286.363 33.3175H295.223C293.697 29.2986 292.205 25.1604 291.018 21.8114C289.825 25.0543 288.041 29.2588 286.363 33.3175ZM334.881 44.1935C334.808 37.1572 334.509 29.4114 334.138 23.1178C331.757 28.2574 327.619 37.9 325.278 44.1935H320.921C318.54 37.3429 315.151 28.7416 312.731 23.1178C312.094 29.4114 311.351 37.0843 311.093 44.1935H306.735C307.962 34.9223 308.672 26.4669 309.116 17.4941H315.038C318.169 24.7161 321.445 32.8002 323.64 39.2794C326.06 32.9859 329.595 24.3845 332.765 17.4941H338.429C338.468 25.1273 339.059 35.3667 339.841 44.1935H334.887H334.881ZM344.934 31.308C344.934 25.87 344.894 22.8194 344.709 17.4941H352.826C359.345 17.4941 363.178 19.8749 363.178 24.0463C363.178 26.8382 360.831 29.2986 357.78 29.8159C361.613 30.5255 364.372 33.0588 364.372 36.2951C364.372 41.4745 360.499 44.1869 352.906 44.1869H344.715C344.901 39.233 344.941 36.3283 344.941 31.3014L344.934 31.308ZM349.55 20.81C349.477 23.2306 349.477 25.9496 349.477 28.7018C350.114 28.7416 351.115 28.7416 352.083 28.7416C356.48 28.7416 358.523 27.3622 358.523 24.6829C358.523 22.1496 356.699 20.7702 352.156 20.7702C351.334 20.7702 350.22 20.7702 349.55 20.81ZM352.196 32.0906C351.268 32.0906 350.22 32.0906 349.477 32.1304C349.477 35.0749 349.477 37.9398 349.55 40.8843C350.22 40.9241 351.228 40.9241 352.309 40.9241C357.78 40.9241 359.61 39.2462 359.61 36.4211C359.61 33.596 357.229 32.1038 352.203 32.1038L352.196 32.0906ZM373.981 17.4941C373.796 22.8194 373.756 27.9192 373.756 33.397C373.756 38.8748 376.7 41.07 380.679 41.07C384.658 41.07 387.344 39.2794 387.344 33.397C387.344 27.9259 387.344 22.8194 387.198 17.4941H391.595C391.37 21.4069 391.337 25.1273 391.337 28.5161C391.337 30.5984 391.449 32.8002 391.449 34.7366C391.449 41.1761 386.946 44.6047 380.315 44.6047C373.683 44.6047 369.14 41.4015 369.14 34.7764C369.14 32.6543 369.213 30.7178 369.213 28.5227C369.213 25.2798 369.14 21.8578 368.988 17.5008H373.975L373.981 17.4941ZM401.98 44.1935H396.993C397.179 39.2396 397.219 36.3349 397.219 31.308C397.219 25.87 397.179 22.7796 396.993 17.4941H404.593C411.225 17.4941 415.39 19.9545 415.39 24.9018C415.39 28.2906 413.268 30.7112 410.217 31.8651C411.928 34.9555 415.171 40.3206 417.141 43.2584L412.114 45.0822C410.104 41.6204 407.644 36.8522 405.893 33.2777C405.223 33.3175 404.554 33.3175 403.844 33.3175C403.134 33.3175 402.431 33.3175 401.762 33.2777C401.801 37.1904 401.835 40.9837 401.987 44.1869L401.98 44.1935ZM401.868 20.8829C401.795 23.1908 401.755 27.5147 401.755 29.9286C402.239 29.9684 403.095 29.9684 404.063 29.9684C408.347 29.9684 410.615 28.3304 410.615 25.2732C410.615 22.4082 408.267 20.8432 404.063 20.8432C403.207 20.8432 402.352 20.8432 401.868 20.8829ZM443.349 43.1125C440.517 44.1537 437.58 44.6047 433.441 44.6047C426.107 44.6047 419.289 39.4651 419.289 31.6463C419.289 23.0051 425.47 17.0498 434.781 17.0498C438.243 17.0498 440.962 17.6798 443.197 18.6149L441.97 21.9308C440.033 21.1482 437.387 20.4386 435.079 20.4386C428.076 20.4386 424.316 24.4972 424.316 30.8306C424.316 37.1639 428.932 41.2556 434.144 41.2556C435.968 41.2556 437.235 41.1429 438.356 40.8113C438.428 39.359 438.428 38.205 438.428 36.64C438.428 34.9621 438.428 33.6225 438.356 32.2829H443.343C443.23 33.9939 443.197 35.5988 443.197 37.4623C443.197 39.4717 443.197 41.0766 443.343 43.1258L443.349 43.1125Z" fill="currentColor"></path>
        <path class="burg pointer-events-auto" d="M241.683 31.1758L241.67 8.58147L237.439 4.27084L233.294 8.59473V15.6045C231.45 14.3776 229.374 13.4757 227.153 12.9584V4.27747L222.915 0L218.797 4.31726V12.9385C216.522 13.4492 214.407 14.3643 212.53 15.6177V8.61463L208.279 4.2841L204.141 8.60136V31.1824C204.141 31.1824 204.141 31.2355 204.141 31.2554C204.141 41.6208 212.55 50.0298 222.915 50.0298C233.28 50.0298 241.69 41.6274 241.69 31.2554C241.69 31.2288 241.69 31.2023 241.69 31.1758H241.683ZM222.908 44.2602C215.693 44.2602 209.851 38.411 209.851 31.2023C209.851 23.9936 215.7 18.1444 222.908 18.1444C230.117 18.1444 235.973 23.9936 235.973 31.2023C235.973 38.411 230.124 44.2602 222.908 44.2602ZM235.283 42.967C234.242 42.967 233.393 42.1182 233.393 41.077C233.393 40.0358 234.242 39.1936 235.283 39.1936C236.324 39.1936 237.173 40.0358 237.173 41.077C237.173 42.1182 236.331 42.967 235.283 42.967Z" fill="currentColor"></path>
        <g class="pointer-events-auto logoCastle animate-[spin_4.5s_ease_infinite] group-hover/logo:!animate-running !animate-paused" style="transform-origin: 222.8px 31.2px;" fill="none">
            <path d="M221.751 23.708C222.056 23.1796 222.735 22.9976 223.264 23.3026C223.792 23.6077 223.971 24.2929 223.669 24.8155C223.596 24.9418 223.494 25.0516 223.382 25.1399L223.443 28.3762C223 28.2813 222.551 28.29 222.125 28.4041L222.064 25.1678C221.603 24.84 221.456 24.2191 221.747 23.7137L221.751 23.708ZM220.069 30.5863L216.816 30.6376C216.474 30.1952 215.839 30.0739 215.358 30.3777C214.839 30.7061 214.676 31.3857 214.999 31.9012C215.327 32.4201 216.012 32.586 216.531 32.2576C216.664 32.1735 216.759 32.0752 216.849 31.9588L220.088 31.9066C219.974 31.4808 219.974 31.0292 220.069 30.5863ZM223.674 37.2084L223.61 33.9631C223.184 34.0772 222.733 34.0768 222.287 33.9876L222.348 37.2239C222.236 37.3122 222.143 37.4196 222.067 37.5517C221.762 38.08 221.947 38.7537 222.475 39.0588C223.004 39.3639 223.683 39.1818 223.985 38.6592C224.287 38.1365 224.124 37.5296 223.668 37.2051L223.674 37.2084ZM230.342 30.062C229.848 29.7768 229.218 29.9262 228.894 30.3821L225.649 30.4458C225.763 30.8716 225.762 31.3231 225.676 31.7637L228.916 31.6967C228.999 31.8056 229.108 31.9073 229.235 31.9802C229.769 32.2886 230.443 32.1032 230.744 31.5806C231.046 31.0579 230.867 30.3728 230.339 30.0677L230.342 30.062ZM224.151 28.9683C222.927 28.2621 221.36 28.682 220.654 29.9053C219.948 31.1286 220.367 32.6959 221.591 33.4021C222.814 34.1084 224.381 33.6885 225.088 32.4652C225.794 31.2418 225.374 29.6746 224.151 28.9683ZM222.038 32.6268C221.24 32.1659 220.972 31.1455 221.429 30.353C221.887 29.5604 222.91 29.2861 223.703 29.7437C224.496 30.2013 224.773 31.2192 224.312 32.0175C223.851 32.8158 222.837 33.0877 222.038 32.6268ZM224.048 31.865C224.423 31.216 224.205 30.3859 223.55 30.0079C222.896 29.6299 222.074 29.8598 221.699 30.5088C221.324 31.1578 221.548 31.9912 222.191 32.3626C222.834 32.734 223.67 32.5197 224.048 31.865Z" fill="currentColor"></path>
            <path d="M218.428 42.6041C217.859 42.3828 217.305 42.1089 216.76 41.7939C216.214 41.4789 215.697 41.127 215.221 40.7448L217.46 38.1933C217.772 38.4349 218.104 38.6568 218.454 38.8591C218.804 39.0613 219.157 39.234 219.522 39.3837L218.428 42.6041ZM227.324 19.7285C227.893 19.9498 228.451 20.218 228.996 20.533C229.542 20.848 230.059 21.1999 230.535 21.582L228.296 24.1336C227.984 23.892 227.652 23.6701 227.302 23.4678C226.952 23.2655 226.599 23.0929 226.234 22.9432L227.324 19.7285ZM222.83 22.2872C223.219 22.2898 223.619 22.3138 224.017 22.3674C224.42 22.4243 224.814 22.4984 225.191 22.6013L226.281 19.3866C225.691 19.2145 225.084 19.0859 224.456 19.0066C223.831 18.9216 223.215 18.8876 222.606 18.8956L222.83 22.2872ZM217.932 19.9343L219.434 22.9836C219.796 22.8331 220.17 22.704 220.559 22.5996C220.949 22.4952 221.345 22.418 221.735 22.3671L221.513 18.9845C220.906 19.055 220.29 19.1666 219.683 19.3292C219.076 19.4919 218.49 19.6974 217.929 19.94L217.932 19.9343ZM216.563 24.9179C216.839 24.6403 217.137 24.3759 217.454 24.1305C217.781 23.8828 218.106 23.6646 218.451 23.4654L216.952 20.4251C216.414 20.7196 215.894 21.0628 215.39 21.4455C214.892 21.8316 214.428 22.2375 214.006 22.6757L216.558 24.9146L216.563 24.9179ZM214.652 27.804C214.798 27.4444 214.974 27.0865 215.177 26.7362C215.379 26.3859 215.601 26.0545 215.846 25.7365L213.294 23.4976C212.909 23.9795 212.56 24.4904 212.245 25.036C211.93 25.5816 211.656 26.1357 211.435 26.7047L214.65 27.795L214.652 27.804ZM210.602 31.4234L213.994 31.1991C213.99 30.8068 214.02 30.4104 214.068 30.0092C214.125 29.6056 214.199 29.2119 214.302 28.8348L211.087 27.7445C210.915 28.3344 210.787 28.9417 210.707 29.5698C210.626 30.1888 210.588 30.8105 210.602 31.4234ZM211.641 36.097L214.69 34.5954C214.539 34.2328 214.41 33.8596 214.306 33.47C214.202 33.0805 214.124 32.6836 214.073 32.2943L210.685 32.5129C210.756 33.1202 210.867 33.736 211.03 34.343C211.193 34.9499 211.398 35.5357 211.641 36.097ZM227.818 42.3893L226.317 39.3399C225.954 39.4905 225.581 39.6196 225.191 39.724C224.802 39.8284 224.405 39.9056 224.016 39.9565L224.237 43.3391C224.845 43.2686 225.455 43.1536 226.067 42.9943C226.674 42.8317 227.26 42.6262 227.821 42.3836L227.818 42.3893ZM229.187 37.4057C228.912 37.6833 228.614 37.9477 228.296 38.193C227.978 38.4384 227.644 38.659 227.299 38.8582L228.798 41.8985C229.336 41.6039 229.856 41.2608 230.36 40.878C230.859 40.492 231.323 40.0861 231.744 39.6479L229.187 37.4057ZM223.145 43.428C222.532 43.4417 221.919 43.4019 221.294 43.3169C220.67 43.2319 220.059 43.1091 219.469 42.937L220.559 39.7223C220.936 39.8251 221.336 39.9026 221.734 39.9562C222.132 40.0098 222.531 40.0338 222.92 40.0363L223.145 43.428ZM232.454 38.8169C232.836 38.3407 233.188 37.8241 233.503 37.2785C233.818 36.7329 234.092 36.1788 234.313 35.6098L231.093 34.5162C230.943 34.8816 230.77 35.2337 230.568 35.584C230.366 35.9344 230.14 36.2715 229.902 36.578L232.454 38.8169ZM235.146 30.8911L231.754 31.1154C231.757 31.5077 231.728 31.9041 231.68 32.3053C231.626 32.7032 231.543 33.0993 231.446 33.4797L234.661 34.5699C234.833 33.9801 234.961 33.3728 235.041 32.7447C235.122 32.1257 235.16 31.504 235.152 30.8944L235.146 30.8911ZM216.63 37.469C216.352 37.1939 216.088 36.8957 215.843 36.578C215.597 36.2602 215.377 35.926 215.178 35.5813L212.134 37.0862C212.428 37.6239 212.772 38.1436 213.154 38.6479C213.54 39.1465 213.946 39.6106 214.39 40.0354L216.632 37.4781L216.63 37.469ZM229.124 24.8488L231.366 22.2915C231.804 22.713 232.216 23.1804 232.596 23.6756C232.979 24.1799 233.322 24.6997 233.616 25.2373L230.573 26.7422C230.374 26.3975 230.153 26.0634 229.908 25.7456C229.662 25.4278 229.404 25.133 229.12 24.8545L229.124 24.8488ZM231.451 28.8421C231.555 29.2316 231.633 29.6284 231.683 30.0177L235.072 29.7992C235.001 29.1918 234.89 28.576 234.727 27.9691C234.564 27.3621 234.359 26.7764 234.116 26.2151L231.067 27.7167C231.217 28.0793 231.347 28.4525 231.451 28.8421Z" fill="currentColor"></path>
        </g>
    </g>
</svg>